{
.appVersion = "3227";
.formatVersion = 3;
DisplayStrings = (
HAMBURGEFONTSIV,

glyphs = (
{
color = 6;
glyphname = A;
lastChange = "2023-11-29 21:33:05 +0000";
layers = (
{
anchors = (
{
name = bottom;
pos = (332,0);
},
{
name = ogonek;
pos = (561,10);
},
{
name = top;
pos = (332,700);
}
);
background = {
shapes = (
{
pos = (-5,0);
ref = H;
}
);
};
hints = (
{
horizontal = 1;
place = (652,72);
type = Stem;
},
{
horizontal = 1;
place = (313,73);
type = Stem;
},
{
horizontal = 1;
place = (-24,21);
target = up;
type = BottomGhost;
},
{
place = (410,91);
type = Stem;
},
{
place = (73,90);
type = Stem;
}
);
layerId = "2F065738-4B59-43EB-A5F2-FD5F277958EA";
shapes = (
{
closed = 1;
nodes = (
(186,-11,o),
(210,9,o),
(210,51,cs),
(210,186,ls),
(210,241,o),
(238,259,o),
(321,259,cs),
(361,259,o),
(413,277,o),
(438,300,c),
(438,51,ls),
(438,11,o),
(464,-11,o),
(510,-11,cs),
(557,-11,o),
(582,10,o),
(582,51,cs),
(582,455,ls),
(582,636,o),
(506,711,o),
(321,711,cs),
(138,711,o),
(66,639,o),
(66,455,cs),
(66,55,ls),
(66,9,o),
(88,-11,o),
(138,-11,cs)
);
},
{
closed = 1;
nodes = (
(208,367,o),
(210,403,o),
(210,455,cs),
(210,557,o),
(237,591,o),
(321,591,cs),
(406,591,o),
(438,555,o),
(438,459,cs),
(438,392,o),
(420,380,o),
(321,380,cs),
(269,380,o),
(225,367,o),
(204,346,c)
);
}
);
width = 648;
}
);
metricRight = "=|";
note = A;
unicode = 65;
},
{
color = 6;
glyphname = B;
lastChange = "2023-11-29 21:33:05 +0000";
layers = (
{
anchors = (
{
name = bottom;
pos = (359,0);
},
{
name = center;
pos = (359,350);
},
{
name = top;
pos = (359,700);
}
);
background = {
shapes = (
{
pos = (6,0);
ref = H;
}
);
};
hints = (
{
horizontal = 1;
place = (653,72);
type = Stem;
},
{
horizontal = 1;
place = (315,72);
type = Stem;
},
{
horizontal = 1;
place = (-24,72);
type = Stem;
},
{
place = (389,90);
type = Stem;
},
{
place = (51,90);
type = Stem;
}
);
layerId = "2F065738-4B59-43EB-A5F2-FD5F277958EA";
shapes = (
{
closed = 1;
nodes = (
(335,0,ls),
(500,0,o),
(580,71,o),
(580,211,cs),
(580,296,o),
(553,344,o),
(488,373,c),
(529,397,o),
(551,447,o),
(551,518,cs),
(551,641,o),
(467,711,o),
(319,711,cs),
(148,711,o),
(76,658,o),
(76,532,cs),
(76,53,ls),
(76,22,o),
(95,0,o),
(121,0,cs)
);
},
{
closed = 1;
nodes = (
(220,200,ls),
(220,300,o),
(242,326,o),
(327,326,cs),
(400,326,o),
(430,292,o),
(430,210,cs),
(430,143,o),
(403,117,o),
(325,117,cs),
(220,117,l)
);
},
{
closed = 1;
nodes = (
(219,423,o),
(220,441,o),
(220,515,cs),
(220,575,o),
(247,600,o),
(314,600,cs),
(380,600,o),
(407,574,o),
(407,509,cs),
(407,445,o),
(388,425,o),
(325,425,cs),
(272,425,o),
(230,412,o),
(213,391,c)
);
}
);
width = 622;
}
);
metricLeft = H;
note = B;
unicode = 66;
},
{
color = 6;
glyphname = C;
lastChange = "2023-11-29 21:33:05 +0000";
layers = (
{
background = {
shapes = (
{
pos = (-6,0);
ref = O;
}
);
};
layerId = "2F065738-4B59-43EB-A5F2-FD5F277958EA";
shapes = (
{
closed = 1;
nodes = (
(442,-11,o),
(471,6,o),
(471,57,cs),
(471,103,o),
(448,120,o),
(389,120,cs),
(246,120,o),
(198,177,o),
(198,346,cs),
(198,515,o),
(248,576,o),
(389,576,cs),
(449,576,o),
(471,593,o),
(471,638,cs),
(471,689,o),
(442,706,o),
(357,706,cs),
(151,706,o),
(48,587,o),
(48,347,cs),
(48,109,o),
(152,-11,o),
(357,-11,cs)
);
}
);
width = 495;
}
);
unicode = 67;
},
{
color = 6;
glyphname = D;
lastChange = "2023-11-29 21:33:05 +0000";
layers = (
{
anchors = (
{
name = bottom;
pos = (358,0);
},
{
name = center;
pos = (358,350);
},
{
name = top;
pos = (358,700);
}
);
background = {
shapes = (
{
pos = (6,0);
ref = H;
}
);
};
hints = (
{
horizontal = 1;
place = (652,72);
type = Stem;
},
{
horizontal = 1;
place = (-25,73);
type = Stem;
},
{
place = (389,90);
type = Stem;
},
{
place = (51,90);
type = Stem;
}
);
layerId = "2F065738-4B59-43EB-A5F2-FD5F277958EA";
shapes = (
{
closed = 1;
nodes = (
(282,0,ls),
(485,0,o),
(584,114,o),
(584,350,cs),
(584,585,o),
(486,700,o),
(285,700,cs),
(124,700,ls),
(96,700,o),
(76,684,o),
(76,662,cs),
(76,38,ls),
(76,16,o),
(96,0,o),
(124,0,cs)
);
},
{
closed = 1;
nodes = (
(220,573,l),
(255,573,ls),
(391,573,o),
(434,515,o),
(434,347,cs),
(434,181,o),
(393,127,o),
(255,127,cs),
(220,127,l)
);
}
);
width = 638;
}
);
metricLeft = H;
metricRight = O;
note = D;
unicode = 68;
},
{
color = 6;
glyphname = E;
lastChange = "2023-11-29 21:33:05 +0000";
layers = (
{
anchors = (
{
name = bottom;
pos = (320,0);
},
{
name = ogonek;
pos = (531,10);
},
{
name = top;
pos = (347,700);
},
{
name = topleft;
pos = (75,700);
}
);
background = {
shapes = (
{
ref = H;
}
);
};
hints = (
{
horizontal = 1;
place = (652,72);
type = Stem;
},
{
horizontal = 1;
place = (314,72);
type = Stem;
},
{
horizontal = 1;
place = (-25,71);
type = Stem;
},
{
place = (51,90);
type = Stem;
}
);
layerId = "2F065738-4B59-43EB-A5F2-FD5F277958EA";
shapes = (
{
closed = 1;
nodes = (
(446,0,ls),
(497,0,o),
(516,18,o),
(516,64,cs),
(516,112,o),
(495,132,o),
(446,132,cs),
(285,132,ls),
(229,132,o),
(220,141,o),
(220,198,cs),
(220,273,o),
(236,291,o),
(298,291,cs),
(405,291,ls),
(441,291,o),
(464,317,o),
(464,357,cs),
(464,397,o),
(442,421,o),
(405,421,cs),
(306,421,ls),
(272,421,o),
(235,409,o),
(212,390,c),
(216,420,o),
(220,473,o),
(220,501,cs),
(220,565,o),
(223,568,o),
(296,568,cs),
(446,568,ls),
(490,568,o),
(516,592,o),
(516,633,cs),
(516,675,o),
(490,700,o),
(446,700,cs),
(230,700,ls),
(132,700,o),
(76,643,o),
(76,545,cs),
(76,130,ls),
(76,46,o),
(118,0,o),
(193,0,cs)
);
}
);
width = 548;
}
);
metricLeft = H;
note = E;
unicode = 69;
},
{
color = 6;
glyphname = F;
lastChange = "2023-11-29 21:33:05 +0000";
layers = (
{
anchors = (
{
name = bottom;
pos = (316,0);
},
{
name = top;
pos = (316,700);
}
);
background = {
shapes = (
{
ref = E;
}
);
};
hints = (
{
horizontal = 1;
place = (652,72);
type = Stem;
},
{
horizontal = 1;
place = (313,72);
type = Stem;
},
{
horizontal = 1;
place = (-24,21);
target = up;
type = BottomGhost;
},
{
place = (51,89);
type = Stem;
}
);
layerId = "2F065738-4B59-43EB-A5F2-FD5F277958EA";
shapes = (
{
closed = 1;
nodes = (
(198,-11,o),
(220,10,o),
(220,54,cs),
(220,174,ls),
(220,244,o),
(241,263,o),
(317,263,cs),
(395,263,ls),
(439,263,o),
(464,286,o),
(464,327,cs),
(464,369,o),
(440,391,o),
(395,391,cs),
(325,391,ls),
(275,391,o),
(236,380,o),
(211,360,c),
(216,396,o),
(220,444,o),
(220,481,cs),
(220,559,o),
(227,568,o),
(285,568,cs),
(445,568,ls),
(487,568,o),
(515,594,o),
(515,633,cs),
(515,674,o),
(488,700,o),
(445,700,cs),
(230,700,ls),
(132,700,o),
(76,642,o),
(76,542,cs),
(76,54,ls),
(76,11,o),
(101,-11,o),
(150,-11,cs)
);
}
);
width = 533;
}
);
metricLeft = H;
note = F;
unicode = 70;
},
{
color = 6;
glyphname = G;
lastChange = "2023-11-29 21:38:43 +0000";
layers = (
{
anchors = (
{
name = bottom;
pos = (322,0);
},
{
name = top;
pos = (322,700);
}
);
background = {
shapes = (
{
pos = (-3,0);
ref = O;
}
);
};
hints = (
{
horizontal = 1;
place = (653,71);
type = Stem;
},
{
horizontal = 1;
place = (314,72);
type = Stem;
},
{
horizontal = 1;
place = (-24,72);
type = Stem;
},
{
place = (389,90);
type = Stem;
},
{
place = (51,90);
type = Stem;
}
);
layerId = "2F065738-4B59-43EB-A5F2-FD5F277958EA";
shapes = (
{
closed = 1;
nodes = (
(506,-11,o),
(589,88,o),
(589,292,cs),
(589,363,o),
(579,376,o),
(518,376,cs),
(356,376,ls),
(322,376,o),
(302,356,o),
(302,320,cs),
(302,284,o),
(321,265,o),
(356,265,cs),
(475,265,l),
(454,258,o),
(444,247,o),
(444,214,cs),
(444,157,o),
(407,121,o),
(331,121,cs),
(236,121,o),
(204,180,o),
(204,358,cs),
(204,527,o),
(233,579,o),
(329,579,cs),
(394,579,o),
(431,556,o),
(431,516,cs),
(431,476,o),
(457,454,o),
(504,454,cs),
(553,454,o),
(575,478,o),
(575,532,cs),
(575,642,o),
(483,711,o),
(334,711,cs),
(142,711,o),
(54,597,o),
(54,347,cs),
(54,100,o),
(139,-11,o),
(327,-11,cs)
);
}
);
width = 639;
}
);
metricLeft = O;
note = G;
unicode = 71;
},
{
color = 6;
glyphname = H;
lastChange = "2023-11-29 21:38:46 +0000";
layers = (
{
background = {
shapes = (
{
pos = (7,0);
ref = O;
}
);
};
hints = (
{
horizontal = 1;
place = (724,-20);
target = down;
type = TopGhost;
},
{
horizontal = 1;
place = (315,71);
type = Stem;
},
{
horizontal = 1;
place = (-24,21);
target = up;
type = BottomGhost;
},
{
place = (389,90);
type = Stem;
},
{
place = (51,90);
type = Stem;
}
);
layerId = "2F065738-4B59-43EB-A5F2-FD5F277958EA";
shapes = (
{
closed = 1;
nodes = (
(199,-11,o),
(220,10,o),
(220,56,cs),
(220,195,ls),
(220,288,o),
(247,314,o),
(333,314,cs),
(395,314,o),
(444,331,o),
(452,355,c),
(452,56,ls),
(452,10,o),
(476,-11,o),
(526,-11,cs),
(575,-11,o),
(596,10,o),
(596,56,cs),
(596,644,ls),
(596,690,o),
(572,711,o),
(523,711,cs),
(473,711,o),
(452,690,o),
(452,644,cs),
(452,442,l),
(351,442,ls),
(281,442,o),
(247,430,o),
(213,396,c),
(218,414,o),
(220,462,o),
(220,544,cs),
(220,644,ls),
(220,690,o),
(196,711,o),
(147,711,cs),
(97,711,o),
(76,690,o),
(76,644,cs),
(76,56,ls),
(76,10,o),
(100,-11,o),
(150,-11,cs)
);
}
);
width = 672;
}
);
metricRight = "=|";
note = H;
unicode = 72;
},
{
color = 6;
glyphname = I;
lastChange = "2023-11-29 21:54:36 +0000";
layers = (
{
background = {
anchors = (
{
name = bottom;
pos = (-162,0);
},
{
name = ogonek;
pos = (49,10);
},
{
name = top;
pos = (-162,700);
},
{
name = topleft;
pos = (-407,700);
}
);
shapes = (
{
closed = 1;
nodes = (
(-269,122,ls),
(-317,122,o),
(-336,105,o),
(-336,62,cs),
(-336,17,o),
(-317,0,o),
(-269,0,cs),
(-18,0,ls),
(35,0,o),
(56,17,o),
(56,62,cs),
(56,105,o),
(35,122,o),
(-18,122,cs),
(-71,122,l),
(-71,500,ls),
(-71,558,o),
(-77,571,o),
(-105,578,c),
(-18,578,ls),
(35,578,o),
(56,595,o),
(56,640,cs),
(56,683,o),
(35,700,o),
(-18,700,cs),
(-269,700,ls),
(-317,700,o),
(-336,683,o),
(-336,640,cs),
(-336,595,o),
(-317,578,o),
(-269,578,cs),
(-215,578,l),
(-215,200,ls),
(-215,142,o),
(-209,129,o),
(-181,122,c)
);
}
);
};
hints = (
{
horizontal = 1;
place = (652,72);
type = Stem;
},
{
horizontal = 1;
place = (-24,72);
type = Stem;
},
{
place = (220,90);
type = Stem;
}
);
layerId = "2F065738-4B59-43EB-A5F2-FD5F277958EA";
shapes = (
{
closed = 1;
nodes = (
(203,-11,o),
(224,10,o),
(224,56,cs),
(224,644,ls),
(224,690,o),
(200,711,o),
(151,711,cs),
(101,711,o),
(80,690,o),
(80,644,cs),
(80,56,ls),
(80,10,o),
(104,-11,o),
(154,-11,cs)
);
}
);
width = 304;
}
);
note = I;
unicode = 73;
},
{
color = 6;
glyphname = J;
lastChange = "2023-11-29 21:47:05 +0000";
layers = (
{
background = {
shapes = (
{
closed = 1;
nodes = (
(3,54,o),
(-29,86,o),
(-29,125,cs),
(-29,218,o),
(113,218,o),
(113,125,cs),
(113,86,o),
(81,54,o),
(42,54,cs)
);
}
);
};
layerId = "2F065738-4B59-43EB-A5F2-FD5F277958EA";
shapes = (
{
closed = 1;
nodes = (
(344,-12,o),
(433,65,o),
(433,185,cs),
(433,633,ls),
(433,685,o),
(409,711,o),
(361,711,cs),
(313,711,o),
(289,685,o),
(289,633,cs),
(289,207,ls),
(289,133,o),
(273,118,o),
(218,117,cs),
(177,116,o),
(162,134,o),
(147,152,cs),
(119,185,o),
(107,196,o),
(73,196,cs),
(28,196,o),
(0,169,o),
(0,127,cs),
(0,47,o),
(86,-12,o),
(206,-12,cs)
);
}
);
width = 509;
}
);
metricRight = H;
unicode = 74;
},
{
color = 0;
glyphname = K;
lastChange = "2023-11-29 21:55:51 +0000";
layers = (
{
layerId = "2F065738-4B59-43EB-A5F2-FD5F277958EA";
shapes = (
{
closed = 1;
nodes = (
(516,588,ls),
(533,606,o),
(544,626,o),
(544,644,cs),
(544,675,o),
(509,709,o),
(477,709,cs),
(460,709,o),
(442,699,o),
(429,685,cs),
(102,328,l),
(102,144,l)
);
},
{
closed = 1;
nodes = (
(179,-12,o),
(199,18,o),
(199,66,cs),
(199,633,ls),
(199,681,o),
(179,711,o),
(127,711,cs),
(75,711,o),
(55,681,o),
(55,633,cs),
(55,66,ls),
(55,18,o),
(75,-12,o),
(127,-12,cs)
);
},
{
closed = 1;
nodes = (
(553,-12,o),
(583,27,o),
(583,54,cs),
(583,74,o),
(567,94,o),
(555,109,cs),
(278,449,l),
(221,309,l),
(468,12,ls),
(483,-6,o),
(502,-12,o),
(516,-12,cs)
);
}
);
width = 600;
}
);
unicode = 75;
},
{
color = 6;
glyphname = L;
lastChange = "2023-11-29 21:45:34 +0000";
layers = (
{
layerId = "2F065738-4B59-43EB-A5F2-FD5F277958EA";
shapes = (
{
closed = 1;
nodes = (
(392,0,ls),
(442,0,o),
(469,24,o),
(469,69,cs),
(469,114,o),
(441,139,o),
(392,139,cs),
(276,139,ls),
(253,139,o),
(228,127,o),
(212,108,c),
(216,129,o),
(220,167,o),
(220,189,cs),
(220,633,ls),
(220,685,o),
(196,711,o),
(148,711,cs),
(100,711,o),
(76,685,o),
(76,633,cs),
(76,78,ls),
(76,26,o),
(100,0,o),
(148,0,cs)
);
}
);
width = 481;
}
);
metricLeft = H;
unicode = 76;
},
{
color = 6;
glyphname = M;
lastChange = "2023-11-29 21:54:29 +0000";
layers = (
{
anchors = (
{
name = bottom;
pos = (446,0);
},
{
name = top;
pos = (451,700);
}
);
hints = (
{
horizontal = 1;
place = (652,72);
type = Stem;
},
{
horizontal = 1;
place = (-23,21);
target = up;
type = BottomGhost;
},
{
horizontal = 1;
place = (-24,21);
target = up;
type = BottomGhost;
},
{
place = (727,90);
type = Stem;
},
{
place = (389,90);
type = Stem;
},
{
place = (51,90);
type = Stem;
}
);
layerId = "2F065738-4B59-43EB-A5F2-FD5F277958EA";
shapes = (
{
closed = 1;
nodes = (
(190,-11,o),
(210,11,o),
(210,66,cs),
(210,480,ls),
(210,546,o),
(238,579,o),
(295,579,cs),
(353,579,o),
(380,541,o),
(380,460,cs),
(380,76,ls),
(380,22,o),
(403,-1,o),
(454,-1,cs),
(504,-1,o),
(524,21,o),
(524,76,cs),
(524,460,ls),
(524,542,o),
(551,579,o),
(609,579,cs),
(666,579,o),
(694,547,o),
(694,480,cs),
(694,66,ls),
(694,12,o),
(717,-11,o),
(768,-11,cs),
(818,-11,o),
(838,11,o),
(838,66,cs),
(838,472,ls),
(838,634,o),
(774,711,o),
(638,711,cs),
(538,711,o),
(472,670,o),
(451,595,c),
(430,669,o),
(363,711,o),
(266,711,cs),
(134,711,o),
(66,629,o),
(66,472,cs),
(66,66,ls),
(66,12,o),
(89,-11,o),
(140,-11,cs)
);
}
);
width = 904;
}
);
metricLeft = "=A";
metricRight = "=|";
note = M;
unicode = 77;
},
{
color = 4;
glyphname = N;
lastChange = "2023-11-29 21:26:10 +0000";
layers = (
{
anchors = (
{
name = bottom;
pos = (344,0);
},
{
name = top;
pos = (344,700);
}
);
hints = (
{
horizontal = 1;
place = (652,72);
type = Stem;
},
{
horizontal = 1;
place = (-23,21);
target = up;
type = BottomGhost;
},
{
horizontal = 1;
place = (-24,21);
target = up;
type = BottomGhost;
},
{
place = (389,90);
type = Stem;
},
{
place = (51,90);
type = Stem;
},
{
horizontal = 1;
place = (-24,21);
target = up;
type = BottomGhost;
},
{
horizontal = 1;
place = (-23,21);
target = up;
type = BottomGhost;
},
{
horizontal = 1;
place = (724,-72);
type = Stem;
},
{
place = (277,-90);
type = Stem;
},
{
place = (615,-90);
type = Stem;
}
);
layerId = "2F065738-4B59-43EB-A5F2-FD5F277958EA";
shapes = (
{
closed = 1;
nodes = (
(196,-11,o),
(220,15,o),
(220,67,cs),
(220,452,ls),
(220,549,o),
(258,591,o),
(347,591,cs),
(433,591,o),
(468,551,o),
(468,452,cs),
(468,67,ls),
(468,15,o),
(492,-11,o),
(540,-11,cs),
(588,-11,o),
(612,15,o),
(612,67,cs),
(612,474,ls),
(612,634,o),
(525,711,o),
(347,711,cs),
(167,711,o),
(76,632,o),
(76,474,cs),
(76,67,ls),
(76,15,o),
(100,-11,o),
(148,-11,cs)
);
}
);
width = 688;
}
);
metricLeft = H;
metricRight = H;
note = N;
unicode = 78;
},
{
color = 6;
glyphname = O;
lastChange = "2023-11-29 21:38:49 +0000";
layers = (
{
anchors = (
{
name = bottom;
pos = (329,0);
},
{
name = center;
pos = (329,350);
},
{
name = ogonek;
pos = (583,0);
},
{
name = top;
pos = (329,700);
},
{
name = topleft;
pos = (16,700);
},
{
name = topright;
pos = (642,700);
}
);
background = {
shapes = (
{
closed = 1;
nodes = (
(515,-11,o),
(609,108,o),
(609,349,cs),
(609,590,o),
(515,709,o),
(329,709,cs),
(142,709,o),
(49,590,o),
(49,349,cs),
(49,108,o),
(142,-11,o),
(329,-11,cs)
);
},
{
closed = 1;
nodes = (
(234,120,o),
(197,185,o),
(197,349,cs),
(197,521,o),
(234,579,o),
(329,579,cs),
(423,579,o),
(461,521,o),
(461,349,cs),
(461,177,o),
(423,120,o),
(329,120,cs)
);
}
);
};
hints = (
{
horizontal = 1;
place = (652,72);
type = Stem;
},
{
horizontal = 1;
place = (-24,72);
type = Stem;
},
{
place = (389,90);
type = Stem;
},
{
place = (51,90);
type = Stem;
}
);
layerId = "2F065738-4B59-43EB-A5F2-FD5F277958EA";
shapes = (
{
closed = 1;
nodes = (
(514,-11,o),
(604,107,o),
(604,351,cs),
(604,594,o),
(515,711,o),
(329,711,cs),
(143,711,o),
(54,594,o),
(54,351,cs),
(54,107,o),
(144,-11,o),
(329,-11,cs)
);
},
{
closed = 1;
nodes = (
(233,121,o),
(204,175,o),
(204,351,cs),
(204,526,o),
(233,579,o),
(329,579,cs),
(425,579,o),
(454,526,o),
(454,351,cs),
(454,175,o),
(425,121,o),
(329,121,cs)
);
}
);
width = 658;
}
);
note = O;
unicode = 79;
},
{
color = 0;
glyphname = P;
lastChange = "2023-11-29 21:55:55 +0000";
layers = (
{
anchors = (
{
name = bottom;
pos = (340,0);
},
{
name = top;
pos = (340,700);
}
);
hints = (
{
horizontal = 1;
place = (653,71);
type = Stem;
},
{
horizontal = 1;
place = (314,72);
type = Stem;
},
{
horizontal = 1;
place = (-24,21);
target = up;
type = BottomGhost;
},
{
place = (389,90);
type = Stem;
},
{
place = (51,90);
type = Stem;
}
);
layerId = "2F065738-4B59-43EB-A5F2-FD5F277958EA";
shapes = (
{
closed = 1;
nodes = (
(197,-11,o),
(220,8,o),
(220,45,cs),
(220,159,ls),
(220,244,o),
(249,266,o),
(363,266,cs),
(536,266,o),
(614,334,o),
(614,486,cs),
(614,642,o),
(531,711,o),
(355,711,cs),
(170,711,o),
(76,635,o),
(76,486,cs),
(76,45,ls),
(76,10,o),
(104,-11,o),
(150,-11,cs)
);
},
{
closed = 1;
nodes = (
(218,392,o),
(220,448,o),
(220,525,cs),
(220,559,o),
(237,597,o),
(349,597,cs),
(451,597,o),
(488,565,o),
(488,476,cs),
(488,399,o),
(460,387,o),
(335,387,cs),
(272,387,o),
(234,373,o),
(211,353,c)
);
}
);
width = 650;
}
);
metricLeft = H;
note = P;
unicode = 80;
},
{
color = 4;
glyphname = Q;
lastChange = "2023-11-29 21:57:02 +0000";
layers = (
{
anchors = (
{
name = bottom;
pos = (265,0);
},
{
name = top;
pos = (329,712);
}
);
hints = (
{
horizontal = 1;
place = (652,72);
type = Stem;
},
{
horizontal = 1;
place = (-24,72);
type = Stem;
},
{
horizontal = 1;
place = (-20,21);
target = up;
type = BottomGhost;
},
{
place = (389,90);
type = Stem;
},
{
place = (274,92);
type = Stem;
},
{
place = (51,90);
type = Stem;
}
);
layerId = "2F065738-4B59-43EB-A5F2-FD5F277958EA";
shapes = (
{
closed = 1;
nodes = (
(494,-140,o),
(509,-131,o),
(524,-113,cs),
(536,-98,o),
(542,-84,o),
(542,-71,cs),
(542,-54,o),
(532,-37,o),
(511,-21,cs),
(353,103,ls),
(339,114,o),
(325,119,o),
(314,119,cs),
(298,119,o),
(281,109,o),
(267,92,cs),
(253,75,o),
(246,56,o),
(246,44,cs),
(246,32,o),
(254,18,o),
(272,4,cs),
(431,-120,ls),
(450,-135,o),
(463,-140,o),
(476,-140,cs)
);
},
{
ref = O;
}
);
width = 658;
}
);
note = Q;
unicode = 81;
},
{
color = 0;
glyphname = R;
lastChange = "2023-11-29 21:55:55 +0000";
layers = (
{
anchors = (
{
name = bottom;
pos = (330,0);
},
{
name = top;
pos = (330,700);
}
);
background = {
shapes = (
{
closed = 0;
nodes = (
(470,45,l),
(470,18,o),
(496,-11,o),
(539,-11,cs),
(579,-11,o),
(606,13,o),
(606,45,cs)
);
}
);
};
hints = (
{
horizontal = 1;
place = (653,71);
type = Stem;
},
{
horizontal = 1;
place = (314,72);
type = Stem;
},
{
horizontal = 1;
place = (-24,21);
target = up;
type = BottomGhost;
},
{
place = (389,90);
type = Stem;
},
{
place = (51,90);
type = Stem;
}
);
layerId = "2F065738-4B59-43EB-A5F2-FD5F277958EA";
shapes = (
{
closed = 1;
nodes = (
(582,-11,o),
(606,12,o),
(606,56,cs),
(606,235,ls),
(606,280,o),
(579,323,o),
(535,352,c),
(582,379,o),
(605,431,o),
(605,507,cs),
(605,649,o),
(524,711,o),
(337,711,cs),
(144,711,o),
(66,645,o),
(66,486,cs),
(66,46,ls),
(66,15,o),
(101,-10,o),
(141,-10,cs),
(179,-10,o),
(210,13,o),
(210,46,cs),
(210,199,ls),
(210,286,o),
(246,320,o),
(341,320,cs),
(435,320,o),
(460,287,o),
(460,161,cs),
(460,46,ls),
(460,10,o),
(488,-11,o),
(534,-11,cs)
);
},
{
closed = 1;
nodes = (
(208,431,o),
(210,468,o),
(210,525,cs),
(210,573,o),
(255,597,o),
(342,597,cs),
(438,597,o),
(479,568,o),
(479,500,cs),
(479,439,o),
(447,427,o),
(343,427,cs),
(272,427,o),
(230,417,o),
(202,393,c)
);
}
);
width = 675;
}
);
note = R;
unicode = 82;
},
{
color = 3;
glyphname = S;
lastChange = "2023-11-29 21:55:58 +0000";
layers = (
{
anchors = (
{
name = bottom;
pos = (295,0);
},
{
name = top;
pos = (295,700);
}
);
background = {
shapes = (
{
closed = 1;
nodes = (
(477,-11,o),
(562,100,o),
(562,351,cs),
(562,600,o),
(477,711,o),
(287,711,cs),
(97,711,o),
(12,600,o),
(12,351,cs),
(12,100,o),
(97,-11,o),
(287,-11,cs)
);
},
{
closed = 1;
nodes = (
(191,121,o),
(162,175,o),
(162,351,cs),
(162,525,o),
(191,579,o),
(287,579,cs),
(383,579,o),
(412,525,o),
(412,351,cs),
(412,175,o),
(383,121,o),
(287,121,cs)
);
}
);
};
guides = (
{
angle = 90;
pos = (295,712);
}
);
hints = (
{
horizontal = 1;
place = (653,72);
type = Stem;
},
{
horizontal = 1;
place = (314,72);
type = Stem;
},
{
horizontal = 1;
place = (-24,72);
type = Stem;
},
{
place = (388,90);
type = Stem;
},
{
place = (51,90);
type = Stem;
}
);
layerId = "2F065738-4B59-43EB-A5F2-FD5F277958EA";
shapes = (
{
closed = 1;
nodes = (
(462,-12,o),
(544,78,o),
(544,205,cs),
(544,310,o),
(488,363,o),
(347,405,cs),
(236,438,o),
(202,471,o),
(202,514,cs),
(202,560,o),
(241,583,o),
(299,583,cs),
(409,583,o),
(382,500,o),
(463,500,cs),
(509,500,o),
(529,526,o),
(529,561,cs),
(529,637,o),
(437,711,o),
(301,711,cs),
(162,711,o),
(59,633,o),
(59,498,cs),
(59,394,o),
(121,333,o),
(269,289,cs),
(377,257,o),
(401,226,o),
(401,188,cs),
(401,135,o),
(353,118,o),
(301,117,cs),
(179,114,o),
(200,196,o),
(114,196,cs),
(74,196,o),
(52,178,o),
(52,137,cs),
(52,62,o),
(125,-12,o),
(285,-12,cs)
);
}
);
width = 588;
}
);
note = S;
unicode = 83;
},
{
color = 3;
glyphname = T;
lastChange = "2023-11-29 21:55:58 +0000";
layers = (
{
anchors = (
{
name = bottom;
pos = (260,0);
},
{
name = center;
pos = (260,350);
},
{
name = top;
pos = (260,700);
}
);
background = {
shapes = (
{
closed = 1;
nodes = (
(300,-11,o),
(340,5,o),
(340,48,cs),
(340,579,l),
(461,579,ls),
(503,579,o),
(512,613,o),
(512,640,cs),
(512,658,o),
(506,700,o),
(461,700,cs),
(167,700,ls),
(57,700,o),
(4,668,o),
(4,579,cs),
(4,540,o),
(13,443,o),
(91,443,c),
(109,443,o),
(125,460,o),
(125,478,cs),
(125,515,o),
(78,544,o),
(98,566,c),
(119,587,o),
(196,579,o),
(196,579,cs),
(196,48,ls),
(196,5,o),
(234,-11,o),
(267,-11,cs)
);
}
);
};
hints = (
{
horizontal = 1;
place = (651,73);
type = Stem;
},
{
horizontal = 1;
place = (-24,21);
target = up;
type = BottomGhost;
},
{
place = (220,91);
type = Stem;
},
{
place = (51,89);
type = Stem;
}
);
layerId = "2F065738-4B59-43EB-A5F2-FD5F277958EA";
shapes = (
{
closed = 1;
nodes = (
(304,-11,o),
(336,5,o),
(336,38,cs),
(336,578,l),
(469,578,ls),
(501,578,o),
(516,608,o),
(516,637,cs),
(516,668,o),
(500,700,o),
(469,700,cs),
(59,700,ls),
(28,700,o),
(12,668,o),
(12,637,cs),
(12,608,o),
(27,578,o),
(59,578,cs),
(206,578,l),
(192,565,o),
(192,551,o),
(192,538,cs),
(192,38,ls),
(192,3,o),
(234,-11,o),
(268,-11,cs)
);
}
);
width = 528;
}
);
note = T;
unicode = 84;
},
{
color = 3;
glyphname = U;
lastChange = "2023-11-29 21:55:58 +0000";
layers = (
{
anchors = (
{
name = bottom;
pos = (333,0);
},
{
name = ogonek;
pos = (544,10);
},
{
name = top;
pos = (333,700);
},
{
name = topright;
pos = (577,700);
}
);
hints = (
{
horizontal = 1;
place = (724,-20);
target = down;
type = TopGhost;
},
{
horizontal = 1;
place = (723,-20);
target = down;
type = TopGhost;
},
{
horizontal = 1;
place = (-24,72);
type = Stem;
},
{
place = (389,90);
type = Stem;
},
{
place = (51,90);
type = Stem;
}
);
layerId = "2F065738-4B59-43EB-A5F2-FD5F277958EA";
shapes = (
{
closed = 1;
nodes = (
(511,-11,o),
(602,71,o),
(602,232,cs),
(602,633,ls),
(602,685,o),
(578,711,o),
(530,711,cs),
(482,711,o),
(458,685,o),
(458,633,cs),
(458,228,ls),
(458,150,o),
(415,109,o),
(331,109,cs),
(249,109,o),
(210,148,o),
(210,228,cs),
(210,633,ls),
(210,685,o),
(186,711,o),
(138,711,cs),
(90,711,o),
(66,685,o),
(66,633,cs),
(66,232,ls),
(66,69,o),
(153,-11,o),
(331,-11,cs)
);
}
);
width = 668;
}
);
metricLeft = "=A";
metricRight = "=|";
note = U;
unicode = 85;
},
{
color = 3;
glyphname = V;
lastChange = "2023-11-29 21:56:05 +0000";
layers = (
{
anchors = (
{
name = bottom;
pos = (287,0);
},
{
name = top;
pos = (287,700);
}
);
background = {
shapes = (
{
closed = 1;
nodes = (
(369,-11,o),
(422,27,o),
(438,85,cs),
(584,614,ls),
(588,628,o),
(590,640,o),
(590,650,cs),
(590,685,o),
(569,705,o),
(528,710,cs),
(522,711,o),
(516,711,o),
(511,711,cs),
(472,711,o),
(454,686,o),
(435,614,cs),
(307,153,l),
(179,614,ls),
(160,686,o),
(142,711,o),
(103,711,cs),
(57,711,o),
(31,694,o),
(25,663,cs),
(24,659,o),
(24,655,o),
(24,650,cs),
(24,640,o),
(26,628,o),
(30,614,cs),
(176,85,ls),
(192,27,o),
(245,-11,o),
(307,-11,cs)
);
}
);
};
hints = (
{
horizontal = 1;
place = (724,-20);
target = down;
type = TopGhost;
},
{
horizontal = 1;
place = (-23,71);
type = Stem;
},
{
place = (388,89);
type = Stem;
},
{
place = (51,90);
type = Stem;
}
);
layerId = "2F065738-4B59-43EB-A5F2-FD5F277958EA";
shapes = (
{
closed = 1;
nodes = (
(369,-11,o),
(422,27,o),
(441,94,cs),
(584,609,ls),
(588,623,o),
(590,635,o),
(590,646,cs),
(590,692,o),
(558,706,o),
(521,706,cs),
(472,706,o),
(455,681,o),
(435,609,cs),
(318,194,ls),
(314,180,o),
(311,173,o),
(307,143,c),
(303,173,o),
(300,180,o),
(296,193,cs),
(179,609,ls),
(159,681,o),
(143,706,o),
(93,706,cs),
(52,706,o),
(24,689,o),
(24,647,cs),
(24,635,o),
(26,623,o),
(30,609,cs),
(173,94,ls),
(192,27,o),
(245,-11,o),
(307,-11,cs)
);
}
);
width = 614;
}
);
note = V;
unicode = 86;
},
{
color = 0;
glyphname = X;
lastChange = "2023-11-29 21:55:49 +0000";
layers = (
{
layerId = "2F065738-4B59-43EB-A5F2-FD5F277958EA";
shapes = (
{
closed = 1;
nodes = (
(150,-10,o),
(168,2,o),
(185,24,cs),
(598,584,ls),
(613,604,o),
(621,622,o),
(621,640,cs),
(621,657,o),
(613,673,o),
(593,689,cs),
(576,704,o),
(559,711,o),
(543,711,cs),
(523,711,o),
(504,698,o),
(487,676,cs),
(74,116,ls),
(60,97,o),
(51,79,o),
(51,61,cs),
(51,44,o),
(60,28,o),
(80,11,cs),
(97,-4,o),
(114,-10,o),
(129,-10,cs)
);
},
{
closed = 1;
nodes = (
(558,-10,o),
(575,-4,o),
(592,11,cs),
(613,28,o),
(621,44,o),
(621,61,cs),
(621,79,o),
(613,97,o),
(598,116,cs),
(185,676,ls),
(168,698,o),
(149,711,o),
(129,711,cs),
(113,711,o),
(96,704,o),
(79,689,cs),
(59,673,o),
(51,657,o),
(51,640,cs),
(51,622,o),
(59,604,o),
(74,584,cs),
(487,24,ls),
(504,2,o),
(522,-10,o),
(543,-10,cs)
);
},
{
closed = 1;
nodes = (
);
}
);
width = 671;
}
);
unicode = 88;
},
{
color = 0;
glyphname = Y;
lastChange = "2023-11-29 21:55:49 +0000";
layers = (
{
layerId = "2F065738-4B59-43EB-A5F2-FD5F277958EA";
shapes = (
{
closed = 1;
nodes = (
(339,195,o),
(387,233,o),
(411,300,cs),
(524,614,ls),
(529,628,o),
(530,641,o),
(530,649,cs),
(530,697,o),
(498,711,o),
(462,711,cs),
(412,711,o),
(404,685,o),
(375,614,cs),
(288,400,ls),
(283,387,o),
(281,379,o),
(277,349,c),
(273,379,o),
(271,387,o),
(266,399,cs),
(179,614,ls),
(150,686,o),
(143,711,o),
(93,711,cs),
(51,711,o),
(24,694,o),
(24,650,cs),
(24,641,o),
(25,628,o),
(30,614,cs),
(143,300,ls),
(167,233,o),
(215,195,o),
(277,195,cs)
);
},
{
closed = 1;
nodes = (
(327,-11,o),
(348,10,o),
(348,56,c),
(348,328,l),
(204,328,l),
(204,56,ls),
(204,10,o),
(228,-11,o),
(278,-11,cs)
);
}
);
width = 600;
}
);
unicode = 89;
},
{
color = 3;
glyphname = Z;
lastChange = "2023-11-29 21:57:26 +0000";
layers = (
{
layerId = "2F065738-4B59-43EB-A5F2-FD5F277958EA";
shapes = (
{
closed = 1;
nodes = (
(468,-7,ls),
(508,-7,o),
(525,11,o),
(525,53,cs),
(525,96,o),
(508,115,o),
(468,115,cs),
(263,115,ls),
(244,115,o),
(284,110,o),
(309,164,cs),
(402,366,l),
(519,612,l),
(521,620,o),
(522,629,o),
(522,640,cs),
(522,682,o),
(503,700,o),
(458,700,cs),
(155,700,ls),
(115,700,o),
(98,682,o),
(98,640,cs),
(98,597,o),
(115,578,o),
(155,578,cs),
(363,578,ls),
(382,578,o),
(342,582,o),
(317,529,cs),
(224,327,l),
(107,81,l),
(105,73,o),
(104,64,o),
(104,53,cs),
(104,11,o),
(123,-7,o),
(168,-7,cs)
);
}
);
width = 600;
}
);
unicode = 90;
},
{
color = 7;
glyphname = a;
lastChange = "2023-11-29 20:57:04 +0000";
layers = (
{
anchors = (
{
name = bottom;
pos = (262,0);
},
{
name = ogonek;
pos = (471,10);
},
{
name = top;
pos = (262,500);
}
);
background = {
shapes = (
{
pos = (-26,0);
ref = o;
}
);
};
hints = (
{
horizontal = 1;
place = (323,63);
type = Stem;
},
{
horizontal = 1;
place = (192,64);
type = Stem;
},
{
horizontal = 1;
place = (-21,72);
type = Stem;
},
{
place = (382,90);
type = Stem;
},
{
place = (51,90);
type = Stem;
},
{
horizontal = 1;
place = (186,-72);
type = Stem;
},
{
horizontal = 1;
place = (349,-72);
type = Stem;
},
{
horizontal = 1;
place = (524,-72);
type = Stem;
},
{
place = (146,-90);
type = Stem;
},
{
place = (473,-90);
type = Stem;
},
{
horizontal = 1;
place = (323,63);
type = Stem;
},
{
horizontal = 1;
place = (192,64);
type = Stem;
},
{
horizontal = 1;
place = (-21,72);
type = Stem;
},
{
place = (378,90);
type = Stem;
},
{
place = (47,90);
type = Stem;
},
{
horizontal = 1;
place = (186,-72);
type = Stem;
},
{
horizontal = 1;
place = (349,-72);
type = Stem;
},
{
horizontal = 1;
place = (524,-72);
type = Stem;
},
{
place = (123,-90);
type = Stem;
},
{
place = (450,-90);
type = Stem;
},
{
horizontal = 1;
place = (323,63);
type = Stem;
},
{
horizontal = 1;
place = (192,64);
type = Stem;
},
{
horizontal = 1;
place = (-21,72);
type = Stem;
},
{
place = (355,90);
type = Stem;
},
{
place = (24,90);
type = Stem;
}
);
layerId = "2F065738-4B59-43EB-A5F2-FD5F277958EA";
shapes = (
{
closed = 1;
nodes = (
(407,-12,o),
(465,71,o),
(465,242,cs),
(465,428,o),
(397,511,o),
(190,511,cs),
(105,511,o),
(76,497,o),
(76,452,cs),
(76,416,o),
(94,389,o),
(158,389,cs),
(305,389,o),
(321,389,o),
(321,243,cs),
(321,122,o),
(310,100,o),
(253,100,cs),
(199,100,o),
(172,120,o),
(172,159,cs),
(172,209,o),
(215,224,o),
(333,215,c),
(333,309,l),
(129,326,o),
(28,273,o),
(28,154,cs),
(28,50,o),
(104,-12,o),
(244,-12,cs)
);
}
);
width = 500;
}
);
metricRight = o;
note = a;
unicode = 97;
},
{
color = 7;
glyphname = b;
lastChange = "2023-11-29 20:58:04 +0000";
layers = (
{
anchors = (
{
name = bottom;
pos = (296,0);
},
{
name = center;
pos = (296,240);
},
{
name = top;
pos = (296,480);
}
);
hints = (
{
horizontal = 1;
place = (724,-20);
target = down;
type = TopGhost;
},
{
horizontal = 1;
place = (314,72);
type = Stem;
},
{
horizontal = 1;
place = (-24,72);
type = Stem;
},
{
place = (389,90);
type = Stem;
},
{
place = (51,90);
type = Stem;
}
);
layerId = "2F065738-4B59-43EB-A5F2-FD5F277958EA";
shapes = (
{
closed = 1;
nodes = (
(462,-12,o),
(535,69,o),
(535,251,cs),
(535,428,o),
(466,512,o),
(319,512,cs),
(251,512,o),
(212,494,o),
(186,450,c),
(197,484,o),
(201,525,o),
(201,594,cs),
(201,684,ls),
(201,737,o),
(180,762,o),
(134,762,cs),
(86,762,o),
(61,735,o),
(61,684,cs),
(61,258,ls),
(61,69,o),
(132,-12,o),
(297,-12,cs)
);
},
{
closed = 1;
nodes = (
(230,108,o),
(205,146,o),
(205,250,cs),
(205,354,o),
(230,392,o),
(299,392,cs),
(367,392,o),
(391,355,o),
(391,252,cs),
(391,146,o),
(366,108,o),
(298,108,cs)
);
}
);
width = 570;
}
);
metricLeft = n;
metricRight = o;
note = b;
unicode = 98;
},
{
color = 7;
glyphname = c;
lastChange = "2023-11-29 20:57:04 +0000";
layers = (
{
anchors = (
{
name = bottom;
pos = (249,0);
},
{
name = ogonek;
pos = (455,10);
},
{
name = top;
pos = (256,500);
}
);
hints = (
{
horizontal = 1;
place = (314,72);
type = Stem;
},
{
horizontal = 1;
place = (-23,72);
type = Stem;
},
{
place = (390,89);
type = Stem;
},
{
place = (51,90);
type = Stem;
},
{
horizontal = 1;
place = (314,72);
type = Stem;
},
{
horizontal = 1;
place = (151,72);
type = Stem;
},
{
horizontal = 1;
place = (-24,72);
type = Stem;
},
{
place = (377,90);
type = Stem;
},
{
place = (50,90);
type = Stem;
},
{
horizontal = 1;
place = (177,-63);
type = Stem;
},
{
horizontal = 1;
place = (308,-64);
type = Stem;
},
{
horizontal = 1;
place = (521,-72);
type = Stem;
},
{
place = (145,-90);
type = Stem;
},
{
place = (476,-90);
type = Stem;
}
);
layerId = "2F065738-4B59-43EB-A5F2-FD5F277958EA";
shapes = (
{
closed = 1;
nodes = (
(394,-11,o),
(408,18,o),
(408,55,cs),
(408,100,o),
(387,117,o),
(336,117,cs),
(225,117,o),
(179,148,o),
(179,250,cs),
(179,352,o),
(225,383,o),
(336,383,cs),
(387,383,o),
(408,400,o),
(408,445,cs),
(408,482,o),
(394,511,o),
(297,511,cs),
(126,511,o),
(35,420,o),
(35,250,cs),
(35,80,o),
(126,-11,o),
(297,-11,cs)
);
}
);
width = 443;
}
);
metricLeft = o;
metricRight = o;
note = c;
unicode = 99;
},
{
color = 7;
glyphname = e;
lastChange = "2023-11-29 20:57:04 +0000";
layers = (
{
anchors = (
{
name = bottom;
pos = (249,0);
},
{
name = ogonek;
pos = (455,10);
},
{
name = top;
pos = (256,500);
}
);
background = {
shapes = (
{
pos = (-4,0);
ref = o;
},
{
closed = 1;
nodes = (
(395,-11,o),
(424,9,o),
(424,50,cs),
(424,91,o),
(397,111,o),
(342,111,cs),
(189,111,o),
(179,120,o),
(179,248,cs),
(179,377,o),
(193,407,o),
(255,407,cs),
(299,407,o),
(328,381,o),
(328,341,cs),
(328,297,o),
(313,290,o),
(228,290,cs),
(201,290,o),
(184,286,o),
(167,283,c),
(167,189,l),
(234,189,ls),
(410,189,o),
(472,236,o),
(472,341,cs),
(472,454,o),
(393,512,o),
(256,512,cs),
(110,512,o),
(35,437,o),
(35,264,cs),
(35,57,o),
(106,-11,o),
(334,-11,cs)
);
}
);
};
hints = (
{
horizontal = 1;
place = (314,72);
type = Stem;
},
{
horizontal = 1;
place = (151,72);
type = Stem;
},
{
horizontal = 1;
place = (-24,72);
type = Stem;
},
{
place = (377,90);
type = Stem;
},
{
place = (50,90);
type = Stem;
},
{
horizontal = 1;
place = (177,-63);
type = Stem;
},
{
horizontal = 1;
place = (308,-64);
type = Stem;
},
{
horizontal = 1;
place = (521,-72);
type = Stem;
},
{
place = (145,-90);
type = Stem;
},
{
place = (476,-90);
type = Stem;
}
);
layerId = "2F065738-4B59-43EB-A5F2-FD5F277958EA";
shapes = (
{
closed = 1;
nodes = (
(444,14,o),
(444,69,cs),
(444,108,o),
(421,122,o),
(385,122,cs),
(346,122,o),
(325,106,o),
(274,106,cs),
(194,106,o),
(179,146,o),
(179,257,cs),
(179,376,o),
(196,407,o),
(251,407,cs),
(299,407,o),
(328,384,o),
(328,337,cs),
(328,295,o),
(305,290,o),
(228,290,cs),
(201,290,o),
(184,286,o),
(167,283,c),
(167,189,l),
(234,189,ls),
(409,189,o),
(472,236,o),
(472,339,cs),
(472,454,o),
(393,512,o),
(259,512,cs),
(106,512,o),
(35,437,o),
(35,256,cs),
(35,72,o),
(109,-11,o),
(296,-11,cs),
(399,-11,o)
);
}
);
width = 504;
}
);
metricLeft = o;
note = e;
unicode = 101;
},
{
color = 6;
glyphname = f;
lastChange = "2023-11-29 21:55:40 +0000";
layers = (
{
background = {
anchors = (
{
name = bottom;
pos = (576,0);
},
{
name = top;
pos = (576,742);
}
);
shapes = (
{
closed = 1;
nodes = (
(233,-11,o),
(255,13,o),
(255,68,cs),
(255,501,ls),
(255,600,o),
(278,640,o),
(334,640,cs),
(411,640,o),
(400,584,o),
(444,584,cs),
(514,584,o),
(537,651,o),
(488,711,cs),
(446,762,o),
(372,761,o),
(324,761,cs),
(186,761,o),
(115,664,o),
(115,520,cs),
(115,68,ls),
(115,46,o),
(124,-11,o),
(182,-11,cs)
);
},
{
closed = 1;
nodes = (
(118,379,l),
(118,500,l),
(92,500,ls),
(50,500,o),
(24,480,o),
(24,439,cs),
(24,399,o),
(50,379,o),
(92,379,cs)
);
},
{
closed = 1;
nodes = (
(295,379,ls),
(337,379,o),
(363,399,o),
(363,439,cs),
(363,480,o),
(337,500,o),
(295,500,cs),
(244,500,l),
(232,379,l)
);
}
);
};
hints = (
{
horizontal = 1;
place = (652,73);
type = Stem;
},
{
horizontal = 1;
place = (315,73);
type = Stem;
},
{
horizontal = 1;
place = (-24,21);
target = up;
type = BottomGhost;
},
{
place = (51,90);
type = Stem;
}
);
layerId = "2F065738-4B59-43EB-A5F2-FD5F277958EA";
shapes = (
{
closed = 1;
nodes = (
(228,-11,o),
(251,15,o),
(251,68,cs),
(251,379,l),
(311,379,ls),
(355,379,o),
(379,400,o),
(379,439,cs),
(379,478,o),
(355,500,o),
(311,500,cs),
(251,500,l),
(251,511,ls),
(251,625,o),
(257,635,o),
(333,635,cs),
(399,635,o),
(423,650,o),
(423,694,cs),
(423,742,o),
(395,762,o),
(324,762,cs),
(183,762,o),
(111,682,o),
(111,520,cs),
(111,500,l),
(101,500,ls),
(57,500,o),
(33,478,o),
(33,439,cs),
(33,400,o),
(57,379,o),
(101,379,cs),
(111,379,l),
(111,68,ls),
(111,24,o),
(136,-11,o),
(185,-11,cs)
);
}
);
width = 363;
}
);
note = f;
unicode = 102;
},
{
color = 7;
glyphname = g;
lastChange = "2023-11-29 21:37:42 +0000";
layers = (
{
anchors = (
{
name = bottom;
pos = (257,-258);
},
{
name = top;
pos = (257,480);
}
);
background = {
shapes = (
{
closed = 1;
nodes = (
(402,-230,o),
(494,-175,o),
(494,-60,cs),
(494,6,o),
(472,48,o),
(423,78,c),
(472,116,o),
(494,173,o),
(494,262,cs),
(494,429,o),
(417,512,o),
(263,512,cs),
(109,512,o),
(32,430,o),
(32,263,cs),
(32,98,o),
(107,18,o),
(262,18,cs),
(318,18,o),
(350,-9,o),
(350,-55,cs),
(350,-96,o),
(310,-112,o),
(206,-112,cs),
(91,-112,o),
(64,-122,o),
(64,-167,cs),
(64,-220,o),
(88,-230,o),
(211,-230,cs)
);
},
{
closed = 1;
nodes = (
(200,138,o),
(176,173,o),
(176,263,cs),
(176,354,o),
(201,392,o),
(263,392,cs),
(325,392,o),
(350,354,o),
(350,263,cs),
(350,173,o),
(326,138,o),
(263,138,cs)
);
},
{
closed = 1;
nodes = (
(388,404,o),
(427,432,o),
(480,432,cs),
(544,432,o),
(570,450,o),
(570,496,cs),
(570,545,o),
(541,572,o),
(491,572,cs),
(439,572,o),
(405,543,o),
(384,481,c),
(388,365,l)
);
},
{
pos = (-4,0);
ref = o;
}
);
};
hints = (
{
place = (389,90);
type = Stem;
},
{
place = (314,72);
type = Stem;
},
{
place = (51,90);
type = Stem;
},
{
place = (-24,72);
type = Stem;
},
{
place = (-362,72);
type = Stem;
}
);
layerId = "2F065738-4B59-43EB-A5F2-FD5F277958EA";
shapes = (
{
closed = 1;
nodes = (
(396,-230,o),
(494,-177,o),
(494,-55,cs),
(494,6,o),
(469,60,o),
(403,78,c),
(472,116,o),
(494,173,o),
(494,262,cs),
(494,429,o),
(417,512,o),
(263,512,cs),
(109,512,o),
(32,430,o),
(32,263,cs),
(32,98,o),
(107,18,o),
(262,18,cs),
(313,18,o),
(350,-10,o),
(350,-51,cs),
(350,-101,o),
(296,-112,o),
(166,-112,cs),
(85,-112,o),
(64,-129,o),
(64,-168,cs),
(64,-222,o),
(103,-230,o),
(185,-230,cs)
);
},
{
closed = 1;
nodes = (
(200,138,o),
(176,173,o),
(176,263,cs),
(176,354,o),
(201,392,o),
(263,392,cs),
(325,392,o),
(350,354,o),
(350,263,cs),
(350,173,o),
(326,138,o),
(263,138,cs)
);
},
{
closed = 1;
nodes = (
(388,413,o),
(427,432,o),
(486,432,cs),
(544,432,o),
(570,450,o),
(570,496,cs),
(570,545,o),
(541,572,o),
(491,572,cs),
(439,572,o),
(405,543,o),
(389,481,c),
(388,365,l)
);
}
);
width = 558;
}
);
note = g;
unicode = 103;
},
{
color = 5;
glyphname = h;
lastChange = "2023-11-29 20:58:04 +0000";
layers = (
{
anchors = (
{
name = bottom;
pos = (295,0);
}
);
background = {
shapes = (
{
ref = n;
}
);
};
hints = (
{
horizontal = 1;
place = (724,-20);
target = down;
type = TopGhost;
},
{
horizontal = 1;
place = (313,71);
type = Stem;
},
{
horizontal = 1;
place = (-20,21);
target = up;
type = BottomGhost;
},
{
horizontal = 1;
place = (-24,21);
target = up;
type = BottomGhost;
},
{
place = (387,90);
type = Stem;
},
{
place = (51,90);
type = Stem;
},
{
horizontal = 1;
place = (314,72);
type = Stem;
},
{
horizontal = 1;
place = (-22,21);
target = up;
type = BottomGhost;
},
{
horizontal = 1;
place = (-23,21);
target = up;
type = BottomGhost;
},
{
place = (344,90);
type = Stem;
},
{
place = (13,90);
type = Stem;
}
);
layerId = "2F065738-4B59-43EB-A5F2-FD5F277958EA";
shapes = (
{
closed = 1;
nodes = (
(184,-11,o),
(204,15,o),
(204,57,cs),
(204,293,ls),
(204,347,o),
(230,392,o),
(292,392,cs),
(354,392,o),
(380,347,o),
(380,293,cs),
(380,57,ls),
(380,15,o),
(400,-11,o),
(452,-11,cs),
(504,-11,o),
(524,15,o),
(524,57,cs),
(524,289,ls),
(524,446,o),
(428,512,o),
(306,512,cs),
(258,512,o),
(215,502,o),
(179,470,c),
(197,501,o),
(205,533,o),
(205,573,cs),
(205,676,ls),
(205,724,o),
(185,754,o),
(133,754,cs),
(81,754,o),
(60,724,o),
(60,676,cs),
(60,57,ls),
(60,15,o),
(80,-11,o),
(132,-11,cs)
);
}
);
width = 585;
}
);
metricRight = n;
note = h;
unicode = 104;
},
{
color = 4;
glyphname = i;
lastChange = "2023-11-29 19:20:39 +0000";
layers = (
{
anchors = (
{
name = bottom;
pos = (141,0);
}
);
hints = (
{
horizontal = 1;
place = (547,39);
type = Stem;
},
{
horizontal = 1;
place = (448,40);
type = Stem;
},
{
horizontal = 1;
place = (-21,21);
target = up;
type = BottomGhost;
},
{
place = (166,41);
type = Stem;
},
{
place = (84,90);
type = Stem;
},
{
place = (50,42);
type = Stem;
}
);
layerId = "2F065738-4B59-43EB-A5F2-FD5F277958EA";
shapes = (
{
closed = 1;
nodes = (
(193,-12,o),
(213,14,o),
(213,56,cs),
(213,444,ls),
(213,486,o),
(193,512,o),
(141,512,cs),
(89,512,o),
(69,486,o),
(69,444,cs),
(69,56,ls),
(69,14,o),
(89,-12,o),
(141,-12,cs)
);
},
{
closed = 1;
nodes = (
(191,594,o),
(228,630,o),
(228,677,cs),
(228,726,o),
(191,762,o),
(141,762,cs),
(91,762,o),
(54,726,o),
(54,677,cs),
(54,630,o),
(91,594,o),
(141,594,cs)
);
}
);
width = 282;
}
);
note = i;
unicode = 105;
},
{
color = 4;
glyphname = j;
lastChange = "2023-11-29 20:57:04 +0000";
layers = (
{
guides = (
{
angle = 90;
pos = (156,678);
}
);
layerId = "2F065738-4B59-43EB-A5F2-FD5F277958EA";
shapes = (
{
closed = 1;
nodes = (
(166,-261,o),
(228,-170,o),
(228,-19,cs),
(228,433,ls),
(228,478,o),
(208,512,o),
(156,512,cs),
(112,512,o),
(88,488,o),
(88,433,cs),
(88,-10,ls),
(88,-124,o),
(82,-134,o),
(6,-134,cs),
(-60,-134,o),
(-84,-149,o),
(-84,-193,cs),
(-84,-241,o),
(-56,-261,o),
(15,-261,cs)
);
},
{
closed = 1;
nodes = (
(206,594,o),
(243,630,o),
(243,677,cs),
(243,726,o),
(206,762,o),
(156,762,cs),
(106,762,o),
(69,726,o),
(69,677,cs),
(69,630,o),
(106,594,o),
(156,594,cs)
);
}
);
width = 297;
}
);
metricRight = i;
unicode = 106;
},
{
color = 0;
glyphname = k;
lastChange = "2023-11-29 20:57:04 +0000";
layers = (
{
layerId = "2F065738-4B59-43EB-A5F2-FD5F277958EA";
shapes = (
{
closed = 1;
nodes = (
(179,-12,o),
(199,18,o),
(199,66,cs),
(199,684,ls),
(199,732,o),
(179,762,o),
(127,762,cs),
(75,762,o),
(55,732,o),
(55,684,cs),
(55,66,ls),
(55,18,o),
(75,-12,o),
(127,-12,cs)
);
},
{
closed = 1;
nodes = (
(467,-12,o),
(502,22,o),
(502,56,cs),
(502,71,o),
(495,87,o),
(481,101,cs),
(305,281,l),
(219,174,l),
(387,12,ls),
(402,-2,o),
(420,-12,o),
(437,-12,cs)
);
},
{
closed = 1;
nodes = (
(444,391,ls),
(461,408,o),
(472,429,o),
(472,446,cs),
(472,477,o),
(437,512,o),
(406,512,cs),
(390,512,o),
(372,503,o),
(357,488,cs),
(188,316,l),
(188,132,l)
);
}
);
width = 508;
}
);
unicode = 107;
},
{
color = 4;
glyphname = l;
lastChange = "2023-11-29 20:58:04 +0000";
layers = (
{
layerId = "2F065738-4B59-43EB-A5F2-FD5F277958EA";
shapes = (
{
closed = 1;
nodes = (
(185,-12,o),
(205,18,o),
(205,66,cs),
(205,684,ls),
(205,732,o),
(185,762,o),
(133,762,cs),
(81,762,o),
(61,732,o),
(61,684,cs),
(61,66,ls),
(61,18,o),
(81,-12,o),
(133,-12,cs)
);
}
);
width = 266;
}
);
metricLeft = n;
metricRight = n;
unicode = 108;
},
{
color = 5;
glyphname = m;
lastChange = "2023-11-29 20:58:04 +0000";
layers = (
{
hints = (
{
horizontal = 1;
place = (313,72);
type = Stem;
},
{
horizontal = 1;
place = (-21,21);
target = up;
type = BottomGhost;
},
{
horizontal = 1;
place = (-22,21);
target = up;
type = BottomGhost;
},
{
place = (638,89);
type = Stem;
},
{
place = (343,92);
type = Stem;
},
{
place = (51,91);
type = Stem;
}
);
layerId = "2F065738-4B59-43EB-A5F2-FD5F277958EA";
shapes = (
{
closed = 1;
nodes = (
(181,-11,o),
(205,11,o),
(205,57,cs),
(205,282,ls),
(205,361,o),
(225,391,o),
(277,391,cs),
(334,391,o),
(359,355,o),
(359,272,cs),
(359,57,ls),
(359,11,o),
(383,-11,o),
(431,-11,cs),
(479,-11,o),
(503,11,o),
(503,57,cs),
(503,272,ls),
(503,355,o),
(528,391,o),
(585,391,cs),
(637,391,o),
(657,361,o),
(657,282,cs),
(657,57,ls),
(657,11,o),
(681,-11,o),
(729,-11,cs),
(777,-11,o),
(801,11,o),
(801,57,cs),
(801,288,ls),
(801,445,o),
(741,511,o),
(600,511,cs),
(512,511,o),
(466,486,o),
(431,419,c),
(396,486,o),
(350,511,o),
(262,511,cs),
(121,511,o),
(61,445,o),
(61,288,cs),
(61,57,ls),
(61,11,o),
(85,-11,o),
(133,-11,cs)
);
}
);
width = 862;
}
);
metricLeft = n;
metricRight = n;
note = m;
unicode = 109;
},
{
color = 5;
glyphname = n;
lastChange = "2023-11-29 20:48:30 +0000";
layers = (
{
anchors = (
{
name = bottom;
pos = (287,0);
},
{
name = top;
pos = (287,480);
}
);
background = {
shapes = (
{
pos = (-5,0);
ref = o;
}
);
};
hints = (
{
horizontal = 1;
place = (314,72);
type = Stem;
},
{
horizontal = 1;
place = (-22,21);
target = up;
type = BottomGhost;
},
{
horizontal = 1;
place = (-23,21);
target = up;
type = BottomGhost;
},
{
place = (382,90);
type = Stem;
},
{
place = (51,90);
type = Stem;
}
);
layerId = "2F065738-4B59-43EB-A5F2-FD5F277958EA";
shapes = (
{
closed = 1;
nodes = (
(176,-11,o),
(199,11,o),
(199,57,cs),
(199,292,ls),
(199,354,o),
(232,391,o),
(287,391,cs),
(342,391,o),
(375,354,o),
(375,292,cs),
(375,57,ls),
(375,11,o),
(398,-11,o),
(444,-11,cs),
(490,-11,o),
(513,11,o),
(513,57,cs),
(513,288,ls),
(513,435,o),
(436,511,o),
(287,511,cs),
(138,511,o),
(61,435,o),
(61,288,cs),
(61,57,ls),
(61,11,o),
(84,-11,o),
(130,-11,cs)
);
}
);
width = 574;
}
);
note = n;
unicode = 110;
},
{
color = 5;
glyphname = o;
lastChange = "2023-11-29 20:57:04 +0000";
layers = (
{
anchors = (
{
name = bottom;
pos = (266,0);
},
{
name = center;
pos = (266,240);
},
{
name = ogonek;
pos = (500,10);
},
{
name = top;
pos = (266,480);
},
{
name = topright;
pos = (527,480);
}
);
hints = (
{
horizontal = 1;
place = (314,72);
type = Stem;
},
{
horizontal = 1;
place = (-26,72);
type = Stem;
},
{
place = (377,90);
type = Stem;
},
{
place = (50,90);
type = Stem;
}
);
layerId = "2F065738-4B59-43EB-A5F2-FD5F277958EA";
shapes = (
{
closed = 1;
nodes = (
(409,-11,o),
(497,88,o),
(497,250,cs),
(497,412,o),
(409,511,o),
(266,511,cs),
(123,511,o),
(35,412,o),
(35,250,cs),
(35,88,o),
(123,-11,o),
(266,-11,cs)
);
},
{
closed = 1;
nodes = (
(198,109,o),
(179,140,o),
(179,250,cs),
(179,360,o),
(198,391,o),
(266,391,cs),
(334,391,o),
(353,360,o),
(353,250,cs),
(353,140,o),
(334,109,o),
(266,109,cs)
);
}
);
width = 532;
}
);
note = o;
unicode = 111;
},
{
color = 5;
glyphname = r;
lastChange = "2023-11-29 20:58:04 +0000";
layers = (
{
hints = (
{
horizontal = 1;
place = (315,72);
type = Stem;
},
{
horizontal = 1;
place = (-24,21);
target = up;
type = BottomGhost;
},
{
place = (51,92);
type = Stem;
}
);
layerId = "2F065738-4B59-43EB-A5F2-FD5F277958EA";
shapes = (
{
closed = 1;
nodes = (
(181,-11,o),
(205,11,o),
(205,57,cs),
(205,264,ls),
(205,347,o),
(232,371,o),
(327,371,cs),
(391,371,o),
(417,389,o),
(417,436,cs),
(417,485,o),
(389,509,o),
(331,509,cs),
(271,509,o),
(225,484,o),
(201,440,c),
(201,490,o),
(181,511,o),
(133,511,cs),
(85,511,o),
(61,489,o),
(61,443,cs),
(61,57,ls),
(61,11,o),
(85,-11,o),
(133,-11,cs)
);
}
);
width = 417;
}
);
metricLeft = n;
note = r;
unicode = 114;
},
{
color = 5;
glyphname = s;
lastChange = "2023-11-29 20:57:04 +0000";
layers = (
{
anchors = (
{
name = bottom;
pos = (269,0);
},
{
name = top;
pos = (269,480);
}
);
background = {
anchors = (
{
name = bottom;
pos = (269,0);
},
{
name = top;
pos = (269,480);
}
);
annotations = (
{
pos = (8,-111);
type = Text;
}
);
shapes = (
{
pos = (-17,0);
ref = o;
}
);
};
hints = (
{
horizontal = 1;
place = (314,72);
type = Stem;
},
{
horizontal = 1;
place = (151,72);
type = Stem;
},
{
horizontal = 1;
place = (-24,71);
type = Stem;
},
{
place = (378,90);
type = Stem;
},
{
place = (50,90);
type = Stem;
}
);
layerId = "2F065738-4B59-43EB-A5F2-FD5F277958EA";
shapes = (
{
closed = 1;
nodes = (
(389,-13,o),
(470,48,o),
(470,147,cs),
(470,253,o),
(377,279,o),
(289,304,cs),
(247,316,o),
(198,327,o),
(198,367,cs),
(198,391,o),
(215,402,o),
(251,402,cs),
(333,402,o),
(334,344,o),
(402,344,cs),
(445,344,o),
(464,368,o),
(464,396,cs),
(464,454,o),
(383,511,o),
(263,511,cs),
(142,511,o),
(54,454,o),
(54,354,cs),
(54,278,o),
(106,229,o),
(234,195,cs),
(309,175,o),
(326,158,o),
(326,134,cs),
(326,109,o),
(307,97,o),
(265,95,cs),
(165,90,o),
(181,153,o),
(106,153,cs),
(62,153,o),
(48,132,o),
(48,103,cs),
(48,45,o),
(106,-13,o),
(246,-13,cs)
);
}
);
width = 512;
}
);
note = s;
unicode = 115;
},
{
color = 5;
glyphname = t;
lastChange = "2023-11-29 20:57:04 +0000";
layers = (
{
anchors = (
{
name = bottom;
pos = (205,0);
},
{
name = center;
pos = (205,250);
},
{
name = top;
pos = (205,500);
},
{
name = topright;
pos = (390,750);
}
);
hints = (
{
horizontal = 1;
place = (724,-20);
target = down;
type = TopGhost;
},
{
horizontal = 1;
place = (314,72);
type = Stem;
},
{
horizontal = 1;
place = (-25,73);
type = Stem;
},
{
place = (51,90);
type = Stem;
}
);
layerId = "2F065738-4B59-43EB-A5F2-FD5F277958EA";
shapes = (
{
closed = 1;
nodes = (
(368,-12,o),
(398,10,o),
(398,58,cs),
(398,100,o),
(374,115,o),
(308,115,cs),
(254,115,o),
(250,118,o),
(250,158,cs),
(250,378,l),
(301,378,ls),
(343,378,o),
(369,398,o),
(369,439,cs),
(369,479,o),
(343,499,o),
(301,499,cs),
(238,499,l),
(246,515,o),
(250,542,o),
(250,561,cs),
(250,610,ls),
(250,656,o),
(222,683,o),
(180,683,cs),
(135,683,o),
(106,651,o),
(106,608,cs),
(106,499,l),
(80,499,ls),
(38,499,o),
(12,479,o),
(12,439,cs),
(12,398,o),
(38,378,o),
(80,378,cs),
(106,378,l),
(106,169,ls),
(106,77,o),
(127,-12,o),
(288,-12,cs)
);
}
);
width = 410;
}
);
note = t;
unicode = 116;
},
{
color = 5;
glyphname = u;
lastChange = "2023-11-29 20:58:04 +0000";
layers = (
{
anchors = (
{
name = bottom;
pos = (290,0);
},
{
name = top;
pos = (290,480);
}
);
hints = (
{
horizontal = 1;
place = (-24,72);
type = Stem;
},
{
horizontal = 1;
place = (-2,21);
target = up;
type = BottomGhost;
},
{
place = (380,92);
type = Stem;
},
{
place = (51,90);
type = Stem;
},
{
horizontal = 1;
origin = (0,20);
place = (511,-72);
type = Stem;
},
{
horizontal = 1;
origin = (0,20);
target = down;
type = TopGhost;
},
{
horizontal = 1;
origin = (0,20);
target = down;
type = TopGhost;
},
{
origin = (0,20);
place = (133,-90);
type = Stem;
},
{
origin = (0,20);
place = (133,-90);
type = Stem;
}
);
layerId = "2F065738-4B59-43EB-A5F2-FD5F277958EA";
shapes = (
{
closed = 1;
nodes = (
(441,-11,o),
(519,65,o),
(519,212,cs),
(519,433,ls),
(519,485,o),
(495,511,o),
(447,511,cs),
(399,511,o),
(375,485,o),
(375,433,cs),
(375,208,ls),
(375,146,o),
(343,109,o),
(290,109,cs),
(237,109,o),
(205,146,o),
(205,208,cs),
(205,433,ls),
(205,485,o),
(181,511,o),
(133,511,cs),
(85,511,o),
(61,485,o),
(61,433,cs),
(61,212,ls),
(61,65,o),
(139,-11,o),
(290,-11,cs)
);
}
);
width = 580;
}
);
metricLeft = n;
metricRight = n;
note = u;
unicode = 117;
},
{
color = 5;
glyphname = v;
lastChange = "2023-11-29 19:20:39 +0000";
layers = (
{
layerId = "2F065738-4B59-43EB-A5F2-FD5F277958EA";
shapes = (
{
closed = 1;
nodes = (
(305,-11,o),
(325,8,o),
(342,49,cs),
(491,414,ls),
(497,429,o),
(499,437,o),
(499,446,cs),
(499,490,o),
(454,510,o),
(418,510,cs),
(386,510,o),
(367,494,o),
(357,465,cs),
(263,184,ls),
(260,175,o),
(257,168,o),
(254,146,c),
(251,168,o),
(248,174,o),
(245,183,cs),
(152,466,ls),
(143,494,o),
(122,511,o),
(89,511,cs),
(53,511,o),
(12,491,o),
(12,446,cs),
(12,436,o),
(14,424,o),
(18,414,cs),
(158,55,ls),
(177,7,o),
(200,-11,o),
(252,-11,cs)
);
}
);
width = 511;
}
);
unicode = 118;
},
{
color = 0;
glyphname = x;
lastChange = "2023-11-29 20:57:04 +0000";
layers = (
{
background = {
shapes = (
{
closed = 1;
nodes = (
(526,-4,o),
(533,40,o),
(492,97,cs),
(232,449,ls),
(202,490,o),
(176,508,o),
(124,508,cs),
(79,508,o),
(74,460,o),
(117,402,cs),
(377,50,ls),
(406,11,o),
(437,-4,o),
(484,-4,cs)
);
}
);
};
layerId = "2F065738-4B59-43EB-A5F2-FD5F277958EA";
shapes = (
{
closed = 1;
nodes = (
(177,-8,o),
(204,7,o),
(226,42,cs),
(372,270,l),
(380,270,l),
(491,420,ls),
(531,474,o),
(518,510,o),
(458,510,cs),
(423,510,o),
(384,498,o),
(360,460,cs),
(240,270,l),
(220,270,l),
(89,79,ls),
(56,31,o),
(71,-8,o),
(136,-8,cs)
);
},
{
closed = 1;
nodes = (
(573,-4,o),
(549,67,o),
(511,112,cs),
(226,449,ls),
(193,488,o),
(160,508,o),
(118,508,cs),
(53,508,o),
(56,460,o),
(105,402,cs),
(413,40,ls),
(437,12,o),
(469,-4,o),
(502,-4,cs)
);
}
);
width = 600;
}
);
unicode = 120;
},
{
color = 6;
glyphname = y;
lastChange = "2023-11-29 21:55:18 +0000";
layers = (
{
layerId = "2F065738-4B59-43EB-A5F2-FD5F277958EA";
shapes = (
{
closed = 1;
nodes = (
(428,-11,o),
(506,65,o),
(506,212,cs),
(506,433,ls),
(506,485,o),
(482,511,o),
(434,511,cs),
(386,511,o),
(362,485,o),
(362,433,cs),
(362,208,ls),
(362,146,o),
(330,109,o),
(277,109,cs),
(224,109,o),
(192,146,o),
(192,208,cs),
(192,433,ls),
(192,485,o),
(168,511,o),
(120,511,cs),
(72,511,o),
(48,485,o),
(48,433,cs),
(48,212,ls),
(48,65,o),
(126,-11,o),
(277,-11,cs)
);
},
{
closed = 1;
nodes = (
(404,-230,o),
(502,-178,o),
(502,-60,cs),
(502,6,o),
(480,58,o),
(411,78,c),
(223,21,l),
(238,19,o),
(254,18,o),
(270,18,cs),
(321,18,o),
(358,-10,o),
(358,-50,cs),
(358,-99,o),
(312,-112,o),
(174,-112,cs),
(99,-112,o),
(72,-126,o),
(72,-167,cs),
(72,-214,o),
(100,-230,o),
(179,-230,cs)
);
}
);
width = 554;
}
);
unicode = 121;
},
{
color = 3;
glyphname = z;
lastChange = "2023-11-29 21:57:20 +0000";
layers = (
{
layerId = "2F065738-4B59-43EB-A5F2-FD5F277958EA";
shapes = (
{
closed = 1;
nodes = (
(371,0,ls),
(417,0,o),
(438,19,o),
(438,59,cs),
(438,101,o),
(415,122,o),
(371,122,cs),
(206,122,ls),
(192,122,o),
(220,119,o),
(243,154,cs),
(361,331,l),
(359,329,o),
(434,425,o),
(434,460,cs),
(434,475,o),
(420,500,o),
(388,500,cs),
(113,500,ls),
(67,500,o),
(46,479,o),
(46,439,cs),
(46,397,o),
(69,378,o),
(113,378,cs),
(245,378,ls),
(247,378,o),
(234,379,o),
(212,344,cs),
(51,85,ls),
(34,57,o),
(34,50,o),
(34,43,cs),
(34,13,o),
(47,0,o),
(80,0,cs)
);
}
);
width = 472;
}
);
unicode = 122;
},
{
color = 8;
glyphname = a.ss01;
lastChange = "2023-11-29 20:57:04 +0000";
layers = (
{
layerId = "2F065738-4B59-43EB-A5F2-FD5F277958EA";
shapes = (
{
closed = 1;
nodes = (
(952,-14,o),
(998,11,o),
(1033,78,c),
(1068,11,o),
(1114,-14,o),
(1202,-14,cs),
(1343,-14,o),
(1403,52,o),
(1403,209,cs),
(1403,440,ls),
(1403,486,o),
(1379,508,o),
(1331,508,cs),
(1283,508,o),
(1259,486,o),
(1259,440,cs),
(1259,215,ls),
(1259,136,o),
(1239,106,o),
(1187,106,cs),
(1130,106,o),
(1105,142,o),
(1105,225,cs),
(1105,440,ls),
(1105,486,o),
(1081,508,o),
(1033,508,cs),
(985,508,o),
(961,486,o),
(961,440,cs),
(961,225,ls),
(961,142,o),
(936,106,o),
(879,106,cs),
(827,106,o),
(807,136,o),
(807,215,cs),
(807,440,ls),
(807,486,o),
(783,508,o),
(735,508,cs),
(687,508,o),
(663,486,o),
(663,440,cs),
(663,209,ls),
(663,52,o),
(723,-14,o),
(864,-14,cs)
);
},
{
closed = 1;
nodes = (
(510,-11,o),
(536,74,o),
(536,263,cs),
(536,445,o),
(512,508,o),
(337,508,cs),
(192,508,o),
(116,465,o),
(116,380,c),
(116,352,o),
(131,321,o),
(167,321,cs),
(183,321,o),
(210,327,o),
(210,345,cs),
(210,363,o),
(222,380,o),
(264,380,cs),
(323,380,o),
(355,385,o),
(392,411,c),
(392,307,l),
(327,307,ls),
(154,307,o),
(105,243,o),
(105,148,cs),
(105,29,o),
(181,-11,o),
(315,-11,cs)
);
},
{
closed = 1;
nodes = (
(280,95,o),
(241,100,o),
(241,155,cs),
(241,196,o),
(262,211,o),
(343,211,cs),
(392,211,l),
(390,111,o),
(383,95,o),
(317,95,cs)
);
}
);
width = 600;
}
);
},
{
color = 0;
glyphname = x.ss09;
lastChange = "2023-11-29 21:56:34 +0000";
layers = (
{
layerId = "2F065738-4B59-43EB-A5F2-FD5F277958EA";
shapes = (
{
closed = 1;
nodes = (
(48,43,o),
(48,39,o),
(48,35,cs),
(48,7,o),
(73,-12,o),
(98,-12,cs),
(116,-12,o),
(133,-2,o),
(141,20,cs),
(167,93,o),
(205,168,o),
(277,240,c),
(269,237,o),
(260,233,o),
(252,230,c),
(267,230,o),
(282,230,o),
(297,230,cs),
(304,230,o),
(317,235,o),
(322,240,cs),
(391,307,o),
(450,363,o),
(494,459,cs),
(498,468,o),
(498,470,o),
(498,474,cs),
(498,496,o),
(467,512,o),
(439,512,cs),
(405,512,o),
(400,492,o),
(398,488,cs),
(360,382,o),
(305,333,o),
(272,291,c),
(280,295,o),
(289,298,o),
(297,302,c),
(282,302,o),
(267,302,o),
(252,302,cs),
(244,302,o),
(231,296,o),
(226,291,cs),
(155,220,o),
(66,117,o),
(50,51,cs)
);
},
{
closed = 1;
nodes = (
(151,508,o),
(137,513,o),
(125,513,cs),
(100,513,o),
(74,492,o),
(74,465,cs),
(74,455,o),
(79,444,o),
(86,435,cs),
(146,356,o),
(175,324,o),
(240,238,cs),
(299,160,o),
(309,142,o),
(409,6,cs),
(420,-9,o),
(434,-14,o),
(446,-14,cs),
(472,-14,o),
(497,8,o),
(497,34,cs),
(497,42,o),
(495,51,o),
(487,62,cs),
(436,130,o),
(355,235,o),
(312,292,cs),
(269,349,o),
(247,381,o),
(163,492,cs)
);
}
);
width = 600;
}
);
},
{
color = 0;
glyphname = x.ss10;
lastChange = "2023-11-29 21:56:34 +0000";
layers = (
{
background = {
shapes = (
{
closed = 1;
nodes = (
(425,201,o),
(502,270,o),
(502,402,cs),
(502,433,ls),
(502,485,o),
(478,511,o),
(430,511,cs),
(382,511,o),
(358,485,o),
(358,433,cs),
(358,398,ls),
(358,350,o),
(327,321,o),
(277,321,cs),
(227,321,o),
(196,350,o),
(196,398,cs),
(196,433,ls),
(196,485,o),
(172,511,o),
(124,511,cs),
(76,511,o),
(52,485,o),
(52,433,cs),
(52,402,ls),
(52,270,o),
(129,201,o),
(277,201,cs)
);
},
{
closed = 1;
nodes = (
(126,321,o),
(48,245,o),
(48,98,cs),
(48,67,ls),
(48,15,o),
(72,-11,o),
(120,-11,cs),
(168,-11,o),
(192,15,o),
(192,67,cs),
(192,102,ls),
(192,164,o),
(224,201,o),
(277,201,cs),
(330,201,o),
(362,164,o),
(362,102,cs),
(362,67,ls),
(362,15,o),
(386,-11,o),
(434,-11,cs),
(482,-11,o),
(506,15,o),
(506,67,cs),
(506,98,ls),
(506,245,o),
(428,321,o),
(277,321,cs)
);
}
);
};
layerId = "2F065738-4B59-43EB-A5F2-FD5F277958EA";
shapes = (
{
closed = 1;
nodes = (
(168,-11,o),
(192,15,o),
(192,67,cs),
(192,102,ls),
(192,164,o),
(224,201,o),
(277,201,c),
(342,206,l),
(470,232,o),
(502,314,o),
(502,402,cs),
(502,433,ls),
(502,485,o),
(478,511,o),
(430,511,cs),
(382,511,o),
(358,485,o),
(358,433,cs),
(358,398,ls),
(358,350,o),
(327,321,o),
(277,321,c),
(178,308,l),
(69,270,o),
(48,174,o),
(48,98,cs),
(48,67,ls),
(48,15,o),
(72,-11,o),
(120,-11,cs)
);
},
{
closed = 1;
nodes = (
(507,-10,o),
(508,61,o),
(478,107,cs),
(361,289,l),
(241,251,l),
(348,48,ls),
(368,9,o),
(399,-10,o),
(452,-10,cs)
);
},
{
closed = 1;
nodes = (
(300,289,l),
(186,510,l),
(22,510,l),
(158,251,l)
);
}
);
width = 600;
}
);
},
{
color = 0;
glyphname = fi;
lastChange = "2023-11-29 20:58:04 +0000";
layers = (
{
anchors = (
{
name = bottom;
pos = (463,0);
}
);
background = {
shapes = (
{
closed = 1;
nodes = (
(222,-11,o),
(244,13,o),
(244,68,cs),
(244,379,l),
(388,379,l),
(388,56,ls),
(388,14,o),
(408,-12,o),
(460,-12,cs),
(512,-12,o),
(532,14,o),
(532,56,cs),
(532,444,ls),
(532,479,o),
(513,500,o),
(464,500,cs),
(244,500,l),
(244,511,ls),
(244,625,o),
(250,635,o),
(326,635,cs),
(403,635,o),
(382,594,o),
(463,594,cs),
(513,594,o),
(550,630,o),
(550,677,cs),
(550,726,o),
(513,762,o),
(338,762,cs),
(156,762,o),
(104,671,o),
(104,520,cs),
(104,500,l),
(81,500,ls),
(39,500,o),
(13,480,o),
(13,439,cs),
(13,399,o),
(39,379,o),
(81,379,cs),
(104,379,l),
(104,68,ls),
(104,46,o),
(113,-11,o),
(171,-11,cs)
);
}
);
};
hints = (
{
horizontal = 1;
place = (652,73);
type = Stem;
},
{
horizontal = 1;
place = (315,73);
type = Stem;
},
{
horizontal = 1;
place = (-24,21);
target = up;
type = BottomGhost;
},
{
place = (51,90);
type = Stem;
},
{
horizontal = 1;
place = (547,39);
type = Stem;
},
{
horizontal = 1;
place = (448,40);
type = Stem;
},
{
horizontal = 1;
place = (-21,21);
target = up;
type = BottomGhost;
},
{
place = (499,41);
type = Stem;
},
{
place = (417,90);
type = Stem;
},
{
place = (383,42);
type = Stem;
}
);
layerId = "2F065738-4B59-43EB-A5F2-FD5F277958EA";
shapes = (
{
closed = 1;
nodes = (
(532,-12,o),
(552,14,o),
(552,56,cs),
(552,444,ls),
(552,479,o),
(533,500,o),
(484,500,cs),
(244,500,l),
(244,511,ls),
(244,629,o),
(277,639,o),
(324,639,cs),
(423,639,o),
(392,594,o),
(465,594,cs),
(533,594,o),
(565,632,o),
(565,677,cs),
(565,724,o),
(529,762,o),
(377,762,cs),
(167,762,o),
(104,689,o),
(104,520,cs),
(104,500,l),
(81,500,ls),
(39,500,o),
(13,480,o),
(13,439,cs),
(13,399,o),
(39,382,o),
(81,382,cs),
(104,382,l),
(104,68,ls),
(104,43,o),
(112,-11,o),
(176,-11,cs),
(221,-11,o),
(244,15,o),
(244,68,cs),
(244,382,l),
(408,382,l),
(408,56,ls),
(408,14,o),
(428,-12,o),
(480,-12,cs)
);
}
);
width = 619;
}
);
metricLeft = f;
metricRight = i;
unicode = 64257;
},
{
glyphname = period;
lastChange = "2023-11-29 19:20:39 +0000";
layers = (
{
layerId = "2F065738-4B59-43EB-A5F2-FD5F277958EA";
shapes = (
{
closed = 1;
nodes = (
(186,-11,o),
(217,20,o),
(217,60,cs),
(217,101,o),
(186,133,o),
(145,133,cs),
(103,133,o),
(73,101,o),
(73,60,cs),
(73,20,o),
(103,-11,o),
(145,-11,cs)
);
}
);
width = 344;
}
);
unicode = 46;
},
{
glyphname = comma;
lastChange = "2023-11-29 20:57:04 +0000";
layers = (
{
layerId = "2F065738-4B59-43EB-A5F2-FD5F277958EA";
shapes = (
{
closed = 1;
nodes = (
(119,-169,ls),
(145,-169,o),
(161,-157,o),
(172,-136,cs),
(317,140,ls),
(322,149,o),
(324,156,o),
(324,163,cs),
(324,182,o),
(310,193,o),
(284,193,cs),
(184,193,ls),
(161,193,o),
(131,180,o),
(124,154,cs),
(53,-108,ls),
(50,-119,o),
(49,-124,o),
(49,-133,cs),
(49,-160,o),
(58,-169,o),
(89,-169,cs)
);
}
);
width = 386;
}
);
unicode = 44;
},
{
glyphname = exclam;
lastChange = "2023-11-29 19:20:39 +0000";
layers = (
{
layerId = "2F065738-4B59-43EB-A5F2-FD5F277958EA";
shapes = (
{
closed = 1;
nodes = (
(174,189,o),
(194,215,o),
(194,257,cs),
(194,643,ls),
(194,685,o),
(174,711,o),
(122,711,cs),
(70,711,o),
(50,685,o),
(50,643,cs),
(50,257,ls),
(50,215,o),
(70,189,o),
(122,189,cs)
);
},
{
closed = 1;
nodes = (
(166,-11,o),
(196,20,o),
(196,61,cs),
(196,101,o),
(166,133,o),
(124,133,cs),
(83,133,o),
(52,101,o),
(52,61,cs),
(52,20,o),
(83,-11,o),
(124,-11,cs)
);
}
);
width = 246;
}
);
unicode = 33;
},
{
glyphname = dieresiscomb;
lastChange = "2023-11-29 19:20:39 +0000";
layers = (
{
anchors = (
{
name = _top;
pos = (0,480);
},
{
name = top;
}
);
layerId = "2F065738-4B59-43EB-A5F2-FD5F277958EA";
shapes = (
{
closed = 1;
nodes = (
(1436,-14,o),
(1482,11,o),
(1517,78,c),
(1552,11,o),
(1598,-14,o),
(1686,-14,cs),
(1827,-14,o),
(1887,52,o),
(1887,209,cs),
(1887,440,ls),
(1887,486,o),
(1863,508,o),
(1815,508,cs),
(1767,508,o),
(1743,486,o),
(1743,440,cs),
(1743,215,ls),
(1743,136,o),
(1723,106,o),
(1671,106,cs),
(1614,106,o),
(1589,142,o),
(1589,225,cs),
(1589,440,ls),
(1589,486,o),
(1565,508,o),
(1517,508,cs),
(1469,508,o),
(1445,486,o),
(1445,440,cs),
(1445,225,ls),
(1445,142,o),
(1420,106,o),
(1363,106,cs),
(1311,106,o),
(1291,136,o),
(1291,215,cs),
(1291,440,ls),
(1291,486,o),
(1267,508,o),
(1219,508,cs),
(1171,508,o),
(1147,486,o),
(1147,440,cs),
(1147,209,ls),
(1147,52,o),
(1207,-14,o),
(1348,-14,cs)
);
}
);
width = 300;
}
);
unicode = 776;
},
{
glyphname = acutecomb;
lastChange = "2023-11-29 20:57:04 +0000";
layers = (
{
anchors = (
{
name = _top;
pos = (146,500);
},
{
name = top;
pos = (146,685);
}
);
layerId = "2F065738-4B59-43EB-A5F2-FD5F277958EA";
shapes = (
{
closed = 1;
nodes = (
(237,600,ls),
(260,608,o),
(269,623,o),
(262,648,cs),
(258,662,ls),
(253,680,o),
(231,694,o),
(208,682,cs),
(74,611,ls),
(57,602,o),
(44,590,o),
(46,571,cs),
(49,547,o),
(72,540,o),
(94,548,cs)
);
}
);
width = 300;
}
);
unicode = 769;
},
{
glyphname = macroncomb;
lastChange = "2023-11-29 19:20:39 +0000";
layers = (
{
anchors = (
{
name = _top;
pos = (206,687);
},
{
name = top;
pos = (206,791);
}
);
hints = (
{
horizontal = 1;
place = (710,81);
type = Stem;
},
{
place = (50,312);
type = Stem;
}
);
layerId = "2F065738-4B59-43EB-A5F2-FD5F277958EA";
shapes = (
{
closed = 1;
nodes = (
(317,710,ls),
(340,710,o),
(362,726,o),
(362,750,cs),
(362,774,o),
(340,791,o),
(317,791,cs),
(95,791,ls),
(72,791,o),
(50,774,o),
(50,750,cs),
(50,726,o),
(72,710,o),
(95,710,cs)
);
}
);
width = 412;
}
);
unicode = 772;
},
{
glyphname = tilde;
lastChange = "2023-11-29 20:57:04 +0000";
layers = (
{
hints = (
{
horizontal = 1;
place = (600,121);
type = Stem;
},
{
horizontal = 1;
place = (551,72);
type = Stem;
},
{
place = (50,290);
type = Stem;
}
);
layerId = "2F065738-4B59-43EB-A5F2-FD5F277958EA";
shapes = (
{
closed = 1;
nodes = (
(295,551,o),
(340,586,o),
(340,630,cs),
(340,659,o),
(320,672,o),
(293,672,cs),
(245,672,o),
(254,633,o),
(245,623,c),
(245,623,l),
(241,623,o),
(240,634,o),
(240,636,cs),
(240,648,o),
(238,665,o),
(228,681,cs),
(210,710,o),
(175,721,o),
(146,721,cs),
(91,721,o),
(50,683,o),
(50,642,cs),
(50,613,o),
(70,600,o),
(97,600,cs),
(144,600,o),
(137,641,o),
(145,649,c),
(145,650,l),
(149,650,o),
(150,639,o),
(150,636,cs),
(150,625,o),
(152,609,o),
(161,594,cs),
(179,563,o),
(215,551,o),
(245,551,cs)
);
}
);
width = 390;
}
);
note = tilde;
unicode = 732;
},
{
glyphname = macron;
lastChange = "2023-11-29 19:20:39 +0000";
layers = (
{
hints = (
{
horizontal = 1;
place = (710,81);
type = Stem;
},
{
place = (50,312);
type = Stem;
}
);
layerId = "2F065738-4B59-43EB-A5F2-FD5F277958EA";
shapes = (
{
closed = 1;
nodes = (
(317,710,ls),
(340,710,o),
(362,726,o),
(362,750,cs),
(362,774,o),
(340,791,o),
(317,791,cs),
(95,791,ls),
(72,791,o),
(50,774,o),
(50,750,cs),
(50,726,o),
(72,710,o),
(95,710,cs)
);
}
);
width = 412;
}
);
note = macron;
unicode = 175;
},
